# Blender 4.1.1
# www.blender.org
o Plane_Plane.001
v -0.282923 -0.412026 0.138912
v -0.119818 0.479552 0.073051
v 0.164550 0.450980 0.087810
v 0.630827 -0.317839 0.183813
v 1.083750 -0.282213 0.131540
v 1.891683 -0.338745 0.095735
v 1.918188 -0.282664 0.096344
v -1.536585 -0.104098 0.119115
v 0.203258 0.730585 0.082983
v 0.920864 0.177363 0.041002
v 0.434720 -0.316206 0.155960
v 0.898632 0.110386 0.061691
v 1.511423 -0.145594 0.095055
v 1.415328 0.073129 0.093595
v 1.680714 0.065677 0.097477
v 1.705772 0.466179 0.096490
v 1.859176 0.507032 0.096877
v -1.325918 0.273682 0.131939
v 0.016878 0.637060 0.087506
v 0.071317 0.416692 0.220433
v 0.477005 0.253276 0.113782
v 1.106913 0.042053 0.175921
v -0.368598 0.416098 0.128158
v -1.022955 0.365884 0.129183
v -0.853105 -0.398435 0.130490
v 0.419588 -0.208814 0.435361
v 1.064265 -0.258057 0.199769
v 0.430526 0.107123 0.419607
v -1.389585 -0.258142 0.125832
v -1.542647 0.101812 0.115124
v -0.135620 -0.292775 0.424533
v -0.973792 0.227281 0.430660
v -0.218247 0.294506 0.437812
v -0.697717 -0.287153 0.425212
v -1.075753 -0.188978 0.428718
v -1.213217 -0.007082 0.428868
v -0.255729 -0.142456 0.531582
v -0.854048 0.078542 0.525750
v -0.161606 0.161881 0.529207
v -0.601832 -0.150351 0.525986
v -0.696401 -0.337181 0.595970
v -0.141096 -0.343833 0.601605
v -0.582527 -0.215458 0.689906
v -0.325416 -0.335936 0.774192
v -0.450803 -0.317623 0.800119
v -0.333177 -0.287748 0.793036
v -0.893573 0.381201 -0.000956
v -0.859716 -0.399532 -0.001480
v -0.515848 0.402676 -0.000507
v -0.500147 -0.409922 -0.001075
v -0.340885 0.426282 -0.000288
v -0.282785 -0.413336 -0.000828
v -0.188303 0.493064 -0.000065
v -0.071647 -0.393593 -0.000571
v 0.260922 0.360829 0.000356
v 0.271484 -0.359452 -0.000152
v 0.463742 0.270437 0.000523
v 0.453447 -0.309603 0.000092
v 0.650220 0.199921 0.000687
v 0.618311 -0.324011 0.000271
v 0.813181 0.137180 0.000828
v 0.805297 -0.313603 0.000493
v 1.006833 0.086480 0.001014
v 1.007740 -0.290094 0.000743
v 1.175949 0.051416 0.001182
v 1.183651 -0.256636 0.000970
v 1.324787 0.060517 0.001360
v 1.340712 -0.209538 0.001183
v 1.395993 0.103244 0.001473
v 1.491784 -0.179502 0.001378
v 1.549641 0.297186 0.001790
v 1.714703 0.055291 0.001804
v 1.684439 0.504768 0.002094
v 1.777257 0.275446 0.002035
v 1.777239 0.587189 0.002260
v 1.856037 0.436250 0.002242
v 1.861547 0.614461 0.002377
v 1.891780 0.527193 0.002348
v 1.914582 0.592658 0.002422
v 1.665240 -0.302327 0.001490
v 1.824157 -0.137063 0.001791
v 1.829975 -0.373542 0.001627
v 1.923194 -0.264438 0.001813
v 1.920799 -0.416909 0.001700
v 1.973546 -0.335764 0.001819
v 1.962610 -0.425191 0.001742
v 1.989980 -0.381775 0.001805
v -1.090358 0.353790 -0.001201
v -1.100746 -0.330930 -0.001707
v -1.247359 0.310504 -0.001412
v -1.271736 -0.293930 -0.001877
v -1.387686 0.236453 -0.001627
v -1.412083 -0.247880 -0.002005
v -1.478430 0.163530 -0.001784
v -1.500314 -0.160708 -0.002043
v -1.544247 0.099748 -0.001906
v -1.550126 -0.055076 -0.002025
v -0.079049 0.672451 0.000190
v 0.191447 0.489011 0.000369
v 0.055885 0.767239 0.000413
v 0.201758 0.639769 0.000489
v 0.169323 0.808350 0.000574
v 0.233455 0.736177 0.000595
v 0.234999 0.833980 0.000667
v 0.264109 0.814760 0.000687
v 0.868174 0.182652 0.000924
v 0.956234 0.152144 0.001004
v 0.905606 0.205893 0.000984
v 0.943560 0.188086 0.001015
v -0.282602 -0.411825 -0.140565
v -0.106646 0.472190 -0.080989
v 0.219024 0.407476 -0.078887
v 0.448372 -0.315627 -0.157486
v 1.512796 -0.144788 -0.094279
v 1.708906 0.464486 -0.093146
v 1.891900 -0.338609 -0.092289
v 1.918405 -0.282528 -0.092756
v -1.536307 -0.103923 -0.123203
v 0.146912 0.526029 -0.089974
v 0.017078 0.637186 -0.086957
v 0.920955 0.177420 -0.039039
v 0.475190 0.254987 -0.112318
v 0.899999 0.110752 -0.060263
v 1.397435 0.068487 -0.092722
v 1.680934 0.065815 -0.093931
v 1.859393 0.507168 -0.092285
v -1.325611 0.273874 -0.134998
v 0.213824 0.747179 -0.072393
v 0.071822 0.417009 -0.220076
v 1.112740 0.041393 -0.174014
v -0.343718 0.420355 -0.119613
v -1.022656 0.366072 -0.131413
v -1.389292 -0.257957 -0.129804
v -0.852802 -0.398244 -0.133434
v 0.433266 0.107882 -0.417599
v 1.093798 -0.273211 -0.173443
v -1.542378 0.101982 -0.118929
v -0.134531 -0.292176 -0.425887
v -0.972800 0.227904 -0.432976
v 0.424097 -0.217459 -0.427911
v -0.217240 0.295139 -0.438296
v -0.702684 -0.285627 -0.427573
v -1.074765 -0.188357 -0.431870
v -1.212229 -0.006460 -0.432072
v -0.245338 -0.142469 -0.533892
v -0.852838 0.079303 -0.528005
v -0.157952 0.163279 -0.529433
v -0.601268 -0.149640 -0.527920
v -0.695030 -0.336319 -0.598463
v -0.139712 -0.342963 -0.602833
v -0.580941 -0.214460 -0.691961
v -0.323636 -0.334817 -0.775831
v -0.448962 -0.316465 -0.802019
v -0.331353 -0.286601 -0.794623
vn 0.0386 -0.9801 0.1948
vn -0.2695 0.6992 0.6622
vn 0.5588 0.5773 0.5954
vn 0.0439 -0.9665 0.2530
vn 0.2118 -0.9581 0.1926
vn 0.0666 -0.4877 0.8705
vn 0.6095 0.2333 0.7577
vn -0.8526 -0.3420 0.3950
vn 0.4505 0.2292 0.8628
vn 0.2246 0.4855 0.8449
vn 0.0597 -0.9804 0.1878
vn 0.2732 0.8827 0.3823
vn -0.0176 -0.4559 0.8899
vn -0.2031 0.4910 0.8472
vn 0.4520 0.0364 0.8913
vn -0.4038 0.4165 0.8145
vn 0.5199 0.1640 0.8383
vn -0.4789 0.8042 0.3520
vn -0.2592 0.2996 0.9182
vn 0.1769 0.8485 0.4988
vn 0.3764 0.8905 0.2556
vn 0.2802 0.6482 0.7080
vn -0.1393 0.9566 0.2559
vn -0.1721 0.9576 0.2311
vn -0.1540 -0.9640 0.2169
vn 0.2074 -0.5041 0.8384
vn 0.2778 -0.5673 0.7752
vn 0.3154 0.4536 0.8335
vn -0.5010 -0.7932 0.3462
vn -0.8417 0.3822 0.3814
vn 0.2465 -0.8534 0.4593
vn -0.2471 0.6612 0.7083
vn 0.0099 0.7531 0.6578
vn -0.2906 -0.8403 0.4577
vn -0.3109 -0.5642 0.7648
vn -0.5149 0.0343 0.8566
vn 0.2792 0.2989 0.9125
vn -0.1498 0.1697 0.9741
vn 0.0922 0.3205 0.9428
vn -0.3388 0.3022 0.8910
vn -0.8278 -0.5189 0.2133
vn 0.8364 -0.4881 0.2494
vn -0.4789 0.5989 0.6419
vn 0.3071 -0.7347 0.6049
vn -0.2535 -0.3044 0.9182
vn 0.3371 0.3304 0.8816
vn -0.0772 0.9970 0.0006
vn -0.1563 -0.9877 -0.0009
vn -0.0883 0.9961 0.0072
vn -0.0231 -0.9997 -0.0007
vn -0.2810 0.9596 -0.0139
vn 0.0387 -0.9992 -0.0007
vn -0.4574 0.8887 -0.0305
vn 0.1202 -0.9928 0.0009
vn 0.6221 0.7829 -0.0037
vn 0.1383 -0.9904 0.0038
vn 0.3832 0.9237 0.0037
vn 0.0812 -0.9967 0.0011
vn 0.3339 0.9426 0.0050
vn 0.0123 -0.9994 -0.0317
vn 0.1598 0.9871 0.0063
vn 0.0762 -0.9965 -0.0343
vn 0.3478 0.9375 0.0039
vn 0.1399 -0.9899 -0.0238
vn 0.0414 0.9991 -0.0016
vn 0.2557 -0.9667 -0.0148
vn -0.2114 0.9774 -0.0048
vn 0.2885 -0.9575 -0.0035
vn -0.6714 0.7395 0.0478
vn -0.1729 -0.9849 -0.0010
vn -0.8001 0.5996 0.0187
vn 0.9873 0.1591 0.0012
vn -0.7505 0.6607 -0.0131
vn 0.9076 -0.4197 0.0007
vn -0.4014 0.9159 -0.0020
vn 0.9263 -0.3767 0.0008
vn 0.0363 0.9993 0.0008
vn 0.9390 -0.3439 0.0008
vn 0.8534 0.5212 0.0014
vn -0.4655 -0.8850 -0.0005
vn 0.8261 0.5636 0.0014
vn -0.4099 -0.9121 -0.0011
vn 0.8024 0.5969 0.0014
vn -0.2846 -0.9586 -0.0010
vn 0.9108 0.4128 0.0013
vn 0.4452 -0.8954 -0.0001
vn 0.9717 -0.2362 0.0009
vn -0.2220 0.9751 0.0004
vn -0.2507 -0.9681 -0.0010
vn -0.3439 0.9390 0.0003
vn -0.2375 -0.9714 -0.0010
vn -0.5740 0.8189 -0.0001
vn -0.5445 -0.8388 -0.0012
vn -0.6465 0.7629 -0.0002
vn -0.7912 -0.6115 -0.0013
vn -0.9155 0.4024 -0.0008
vn -0.9857 -0.1682 -0.0013
vn -0.7347 0.6784 -0.0046
vn 0.9728 0.2308 0.0193
vn -0.4517 0.8922 0.0002
vn 0.9760 -0.2162 -0.0267
vn -0.3513 0.9362 0.0074
vn 0.9437 -0.3304 0.0153
vn 0.1333 0.9910 0.0133
vn 0.9039 0.4273 0.0175
vn -0.6441 0.7562 0.1155
vn 0.9318 0.3630 0.0056
vn -0.1070 0.8611 0.4971
vn 0.7574 0.6425 0.1162
vn 0.0381 -0.9798 -0.1963
vn -0.2329 0.6969 -0.6783
vn 0.5972 0.7291 -0.3343
vn 0.0907 -0.9766 -0.1951
vn -0.0199 -0.4498 -0.8929
vn -0.3902 0.4107 -0.8241
vn 0.0695 -0.4876 -0.8703
vn 0.6127 0.2340 -0.7548
vn -0.8517 -0.3415 -0.3974
vn 0.4374 0.0221 -0.8990
vn -0.2553 0.3132 -0.9147
vn 0.2243 0.4911 -0.8418
vn 0.3744 0.8926 -0.2510
vn 0.2778 0.8842 -0.3755
vn -0.1849 0.5411 -0.8204
vn 0.4585 0.0383 -0.8879
vn 0.5212 0.1663 -0.8371
vn -0.4781 0.8047 -0.3520
vn 0.4679 0.2349 -0.8520
vn 0.1942 0.8803 -0.4329
vn 0.2811 0.6302 -0.7237
vn -0.1463 0.9545 -0.2599
vn -0.1711 0.9579 -0.2305
vn -0.5003 -0.7927 -0.3485
vn -0.1530 -0.9638 -0.2183
vn 0.3197 0.4457 -0.8362
vn 0.2872 -0.7137 -0.6388
vn -0.8408 0.3827 -0.3828
vn 0.2484 -0.8572 -0.4512
vn -0.2449 0.6628 -0.7076
vn 0.2206 -0.5247 -0.8222
vn 0.0103 0.7556 -0.6549
vn -0.2875 -0.8341 -0.4708
vn -0.3095 -0.5625 -0.7667
vn -0.5129 0.0355 -0.8577
vn 0.2914 0.2889 -0.9119
vn -0.1475 0.1711 -0.9742
vn 0.0978 0.3236 -0.9411
vn -0.3341 0.3056 -0.8916
vn -0.8227 -0.5225 -0.2242
vn 0.8303 -0.4981 -0.2499
vn -0.4769 0.5999 -0.6424
vn 0.3084 -0.7338 -0.6053
vn -0.2514 -0.3030 -0.9192
vn 0.3365 0.3296 -0.8821
vt 0.625330 0.143403
vt 0.658445 0.124408
vt 0.624013 0.200651
vt 0.990716 0.589020
vt 0.966159 0.581131
vt 0.996827 0.555363
vt 0.502189 0.954105
vt 0.505948 0.982298
vt 0.451646 0.945813
vt 0.627160 0.093605
vt 0.418993 0.937994
vt 0.414665 0.966085
vt 0.400551 0.934063
vt 0.631341 0.006301
vt 0.660360 0.000423
vt 0.629700 0.049073
vt 0.350544 0.282011
vt 0.378198 0.316758
vt 0.349109 0.330593
vt 0.388162 0.932934
vt 0.883200 0.931219
vt 0.898668 0.949748
vt 0.883312 0.949096
vt 0.353316 0.121756
vt 0.389800 0.142834
vt 0.351643 0.176375
vt 0.882784 0.973289
vt 0.854365 0.977751
vt 0.882572 0.920890
vt 0.622342 0.738821
vt 0.661532 0.816979
vt 0.624220 0.786943
vt 0.469432 0.845635
vt 0.483257 0.858220
vt 0.468829 0.855653
vt 0.624083 0.299966
vt 0.659898 0.307249
vt 0.621388 0.351539
vt 0.360989 0.041164
vt 0.396072 0.063440
vt 0.356102 0.078724
vt 0.626586 0.826377
vt 0.435967 0.838245
vt 0.467713 0.842688
vt 0.434196 0.862717
vt 0.826493 0.526367
vt 0.860094 0.526273
vt 0.827576 0.543349
vt 0.826493 0.452269
vt 0.860913 0.470126
vt 0.826041 0.482807
vt 0.435967 0.885722
vt 0.453973 0.891755
vt 0.439846 0.900826
vt 0.849666 0.170791
vt 0.841745 0.084642
vt 0.952907 0.078470
vt 0.374973 0.408696
vt 0.415398 0.443676
vt 0.372884 0.486082
vt 0.959580 0.720492
vt 0.951697 0.798935
vt 0.912973 0.747024
vt 0.672209 0.261514
vt 0.758163 0.309282
vt 0.489397 0.551720
vt 0.393171 0.556814
vt 0.689288 0.126948
vt 0.218719 0.718047
vt 0.134018 0.753678
vt 0.104744 0.541273
vt 0.042952 0.361542
vt 0.092956 0.374659
vt 0.215653 0.221039
vt 0.170309 0.250413
vt 0.180460 0.115857
vt 0.657475 0.667397
vt 0.753361 0.625230
vt 0.918403 0.548140
vt 0.942709 0.557990
vt 0.951524 0.600165
vt 0.639862 0.935377
vt 0.630940 0.965289
vt 0.658907 0.932934
vt 0.674371 0.137246
vt 0.963197 0.597326
vt 0.991519 0.631614
vt 0.882784 0.900280
vt 0.898403 0.881541
vt 0.885504 0.864373
vt 0.964629 0.448203
vt 0.995501 0.432985
vt 0.964842 0.422654
vt 0.994213 0.659673
vt 0.414665 0.966086
vt 0.618426 0.569585
vt 0.659918 0.508898
vt 0.618333 0.508235
vt 0.885504 0.957616
vt 0.898384 0.948530
vt 0.965556 0.410896
vt 0.660595 -0.000060
vt 0.378985 0.319260
vt 0.372640 0.827080
vt 0.401226 0.826293
vt 0.375469 0.808152
vt 0.619455 0.448548
vt 0.471110 0.866632
vt 0.565802 0.947126
vt 0.933128 0.663956
vt 0.920492 0.667761
vt 0.934021 0.673637
vt 0.853639 0.886837
vt 0.882784 0.864372
vt 0.668909 0.306138
vt 0.613281 0.939128
vt 0.623391 0.253481
vt 0.965556 0.543349
vt 0.995374 0.540892
vt 0.963851 0.494541
vt 0.369791 0.662381
vt 0.384261 0.686618
vt 0.365385 0.614972
vt 0.860914 0.470126
vt 0.952941 0.078441
vt 0.961933 0.035254
vt 0.867019 0.796088
vt 0.937325 0.790617
vt 0.489700 0.552446
vt 0.393098 0.556884
vt 0.134329 0.755598
vt 0.189257 0.845380
vt 0.220383 0.706825
vt 0.901949 0.718982
vt 0.961313 0.697559
vt 0.105711 0.541948
vt 0.757081 0.309561
vt 0.093203 0.375171
vt 0.064557 0.150736
vt 0.116942 0.194662
vt 0.124760 0.088981
vt 0.170289 0.250234
vt 0.215096 0.219436
vt 0.088711 0.002435
vt 0.146307 0.004447
vt 0.753444 0.626844
vt 0.490952 0.158111
vt 0.220442 0.378064
vt 0.174124 0.350301
vt 0.202571 0.534959
vt 0.745671 0.902251
vt 0.741267 0.952410
vt 0.768948 0.976605
vt 0.951800 0.288159
vt 0.977483 0.324616
vt 0.988781 0.256596
vt 0.971778 0.653302
vt 0.424020 0.744855
vt 0.373410 0.718110
vt 0.383936 0.686491
vt 0.401430 0.827363
vt 0.400129 0.967568
vt 0.430174 0.831325
vt 0.403002 0.873682
vt 0.406318 0.832406
vt 0.996827 0.682701
vt 0.920572 0.649199
vt 0.484351 0.838062
vt 0.471110 0.831143
vt 0.853639 0.886864
vt 0.354112 0.501435
vt 0.394831 0.062112
vt 0.365846 0.017513
vt 0.402646 0.003745
vt 0.360430 0.560754
vt 0.856128 0.426209
vt 0.995026 0.540717
vt 0.742101 0.025332
vt 0.788312 0.145203
vt 0.728672 0.031965
vt 0.189367 0.844990
vt 0.874136 0.794721
vt 0.190873 0.034994
vt 0.753830 0.466752
vt 0.484938 0.364658
vt 0.202493 0.537282
vt 0.071096 0.021684
vt 0.173810 0.347627
vt 0.758611 0.731126
vt 0.823832 0.890239
vt 0.823829 0.978030
vt 0.358223 0.841639
vt 0.403002 0.883636
vt 0.349109 0.889925
vt 0.897486 0.233218
vt 0.849664 0.389781
vt 0.850332 0.233279
vt 0.900260 0.622502
vt 0.799266 0.336212
vt 0.802328 0.288593
vt 0.985658 0.360507
vt 0.976228 0.350736
vt 0.971065 0.567078
vt 0.960971 0.724493
vt 0.423568 0.746327
vt 0.375946 0.766544
vt 0.975438 0.659444
vt 0.432486 0.831221
vt 0.425249 0.899189
vt 0.618829 0.671054
vt 0.854464 0.980908
vt 0.394831 0.062111
vt 0.827533 0.426351
vt 0.846410 0.173899
vt 0.788478 0.145439
vt 0.126138 0.817793
vt 0.753830 0.466720
vt 0.823831 0.890276
vt 0.403002 0.831143
vt 0.896778 0.391773
vt 0.375156 0.935628
vt 0.422161 0.895489
vt 0.934021 0.646724
vt 0.896779 0.391742
vt 0.951524 0.646724
vt 0.060049 0.877450
vt 0.059256 0.879045
vt 0.060312 0.880610
vt 0.964998 0.808390
s 1
f 64/1/64 5/2/5 62/3/62
f 99/4/99 3/5/3 55/6/55
f 72/7/72 15/8/15 81/9/81
f 66/10/66 5/2/5 64/1/64
f 83/11/83 7/12/7 85/13/85
f 70/14/70 13/15/13 68/16/68
f 49/17/49 23/18/23 51/19/51
f 85/13/85 7/12/7 87/20/87
f 102/21/102 9/22/9 104/23/104
f 88/24/88 24/25/24 47/26/47
f 69/27/69 14/28/14 71/29/71
f 89/30/89 29/31/29 91/32/91
f 106/33/106 10/34/10 108/35/108
f 58/36/58 11/37/11 56/38/56
f 92/39/92 18/40/18 90/41/90
f 91/32/91 29/31/29 93/42/93
f 73/43/73 16/44/16 75/45/75
f 96/46/96 30/47/30 94/48/94
f 95/49/95 8/50/8 97/51/97
f 77/52/77 17/53/17 79/54/79
f 14/55/14 15/56/15 16/57/16
f 2/58/2 20/59/20 3/60/3
f 2/61/2 3/62/3 19/63/19
f 11/37/11 4/64/4 26/65/26
f 20/59/20 28/66/28 21/67/21
f 5/2/5 13/15/13 27/68/27
f 2/58/2 23/18/23 20/59/20
f 4/64/4 27/68/27 26/65/26
f 27/69/27 22/70/22 28/71/28
f 5/2/5 27/68/27 4/64/4
f 33/72/33 39/73/39 28/71/28
f 34/74/34 40/75/40 35/76/35
f 25/77/25 34/78/34 29/31/29
f 46/79/46 44/80/44 42/81/42
f 78/82/78 126/83/126 79/84/79
f 136/85/136 64/1/64 62/3/62
f 125/8/125 72/7/72 81/9/81
f 136/85/136 66/10/66 64/1/64
f 99/4/99 119/86/119 101/87/101
f 100/88/100 120/89/120 98/90/98
f 82/91/82 116/92/116 84/93/84
f 101/87/101 119/86/119 103/94/103
f 117/95/117 83/11/83 85/13/85
f 50/96/50 110/97/110 52/98/52
f 105/99/105 128/100/128 104/23/104
f 84/93/84 116/92/116 86/101/86
f 114/102/114 70/14/70 68/16/68
f 131/103/131 49/17/49 51/19/51
f 117/95/117 85/13/85 87/20/87
f 69/104/69 124/105/124 67/106/67
f 128/100/128 102/21/102 104/23/104
f 52/98/52 110/97/110 54/107/54
f 132/25/132 88/24/88 47/26/47
f 109/108/109 121/34/121 108/35/108
f 72/7/72 125/8/125 74/109/74
f 107/110/107 121/111/121 109/112/109
f 133/31/133 89/30/89 91/32/91
f 115/113/115 71/29/71 73/114/73
f 121/34/121 106/33/106 108/35/108
f 113/115/113 58/36/58 56/38/56
f 127/40/127 92/39/92 90/41/90
f 74/109/74 125/8/125 76/116/76
f 133/31/133 91/32/91 93/42/93
f 115/44/115 73/43/73 75/45/75
f 113/115/113 60/117/60 58/36/58
f 70/118/70 114/119/114 80/120/80
f 137/47/137 96/46/96 94/48/94
f 61/121/61 123/122/123 59/123/59
f 118/124/118 95/49/95 97/51/97
f 126/53/126 77/52/77 79/54/79
f 115/125/115 126/126/126 125/56/125
f 129/59/129 111/58/111 112/60/112
f 128/127/128 119/128/119 120/63/120
f 135/129/135 129/59/129 122/130/122
f 130/131/130 114/132/114 136/133/136
f 2/61/2 98/134/98 53/135/53
f 130/131/130 136/133/136 135/136/135
f 113/115/113 140/137/140 136/85/136
f 147/138/147 141/72/141 135/136/135
f 139/139/139 146/140/146 144/141/144
f 148/142/148 142/143/142 143/76/143
f 137/144/137 144/141/144 118/145/118
f 142/146/142 134/77/134 133/31/133
f 132/25/132 139/147/139 127/40/127
f 138/148/138 145/149/145 140/150/140
f 154/151/154 153/152/153 151/153/151
f 151/154/151 153/155/153 149/156/149
f 152/80/152 154/79/154 150/81/150
f 78/82/78 79/84/79 17/83/17
f 6/92/6 80/120/80 82/91/82
f 49/17/49 24/25/24 23/18/23
f 3/5/3 101/87/101 9/157/9
f 7/12/7 81/9/81 15/8/15
f 22/158/22 63/159/63 12/160/12
f 25/77/25 50/96/50 1/97/1
f 100/88/100 98/90/98 19/89/19
f 5/2/5 68/16/68 13/15/13
f 82/91/82 84/93/84 6/92/6
f 67/106/67 22/158/22 14/161/14
f 101/87/101 103/94/103 9/157/9
f 9/22/9 100/88/100 19/89/19
f 6/162/6 87/20/87 7/12/7
f 23/163/23 53/164/53 51/165/51
f 50/96/50 52/98/52 1/97/1
f 105/99/105 104/23/104 9/22/9
f 84/93/84 86/101/86 6/92/6
f 103/94/103 105/166/105 9/157/9
f 69/104/69 67/106/67 14/161/14
f 52/98/52 54/107/54 1/97/1
f 12/167/12 107/110/107 10/111/10
f 89/30/89 25/77/25 29/31/29
f 12/168/12 106/33/106 61/169/61
f 54/107/54 11/37/11 1/97/1
f 24/25/24 90/41/90 18/40/18
f 109/108/109 108/35/108 10/34/10
f 16/170/16 71/29/71 14/28/14
f 72/7/72 74/109/74 15/8/15
f 107/110/107 109/112/109 10/111/10
f 21/67/21 55/171/55 3/60/3
f 74/109/74 76/116/76 15/8/15
f 11/37/11 60/117/60 4/64/4
f 18/172/18 94/173/94 30/174/30
f 17/83/17 76/116/76 78/82/78
f 21/67/21 59/123/59 57/175/57
f 95/49/95 29/176/29 8/50/8
f 17/53/17 75/45/75 16/44/16
f 30/47/30 97/51/97 8/50/8
f 4/64/4 62/3/62 5/2/5
f 70/118/70 80/120/80 13/177/13
f 7/178/7 13/179/13 6/180/6
f 61/121/61 59/123/59 12/160/12
f 3/60/3 20/59/20 21/67/21
f 14/55/14 13/179/13 15/56/15
f 16/57/16 15/56/15 17/126/17
f 13/181/13 22/70/22 27/69/27
f 19/63/19 3/62/3 9/182/9
f 36/141/36 29/183/29 35/76/35
f 12/160/12 21/67/21 22/158/22
f 34/78/34 1/97/1 31/184/31
f 31/184/31 11/37/11 26/65/26
f 21/67/21 28/66/28 22/158/22
f 23/18/23 33/185/33 20/59/20
f 32/139/32 36/141/36 38/140/38
f 26/186/26 27/69/27 28/71/28
f 36/141/36 18/187/18 30/144/30
f 30/144/30 8/145/8 36/141/36
f 32/147/32 23/18/23 24/25/24
f 20/59/20 33/185/33 28/66/28
f 39/73/39 40/75/40 37/188/37
f 24/25/24 18/40/18 32/147/32
f 29/31/29 34/78/34 35/189/35
f 26/186/26 39/73/39 37/188/37
f 43/153/43 37/190/37 40/191/40
f 41/192/41 40/193/40 34/194/34
f 38/140/38 35/76/35 40/75/40
f 38/140/38 33/72/33 32/139/32
f 31/148/31 26/186/26 37/188/37
f 34/195/34 42/196/42 41/197/41
f 46/151/46 43/153/43 45/152/45
f 43/154/43 41/156/41 45/155/45
f 42/81/42 37/198/37 46/79/46
f 41/197/41 44/199/44 45/200/45
f 44/201/44 46/202/46 45/155/45
f 99/4/99 112/203/112 119/86/119
f 111/204/111 98/134/98 120/63/120
f 116/92/116 80/120/80 114/119/114
f 49/17/49 132/25/132 47/26/47
f 81/9/81 117/95/117 125/8/125
f 63/159/63 130/205/130 123/122/123
f 50/96/50 134/77/134 110/97/110
f 68/16/68 136/85/136 114/102/114
f 67/106/67 130/205/130 65/206/65
f 100/88/100 128/100/128 120/89/120
f 87/20/87 116/162/116 117/95/117
f 128/207/128 103/94/103 119/86/119
f 131/208/131 53/164/53 111/209/111
f 107/110/107 123/167/123 121/111/121
f 89/30/89 134/77/134 48/210/48
f 71/29/71 124/211/124 69/27/69
f 123/168/123 106/33/106 121/34/121
f 54/107/54 113/115/113 56/38/56
f 90/41/90 132/25/132 127/40/127
f 55/171/55 122/130/122 112/60/112
f 94/173/94 127/212/127 137/174/137
f 126/83/126 76/116/76 125/8/125
f 122/130/122 59/123/59 123/122/123
f 95/49/95 133/176/133 93/213/93
f 75/45/75 126/53/126 115/44/115
f 97/51/97 137/47/137 118/124/118
f 62/3/62 113/115/113 136/85/136
f 125/56/125 124/214/124 115/125/115
f 122/130/122 129/59/129 112/60/112
f 114/215/114 117/178/117 116/180/116
f 119/128/119 111/204/111 120/63/120
f 133/183/133 144/141/144 143/76/143
f 130/131/130 124/216/124 114/132/114
f 130/205/130 122/130/122 123/122/123
f 111/58/111 129/59/129 131/103/131
f 110/97/110 142/146/142 138/217/138
f 113/115/113 138/217/138 140/137/140
f 130/205/130 135/129/135 122/130/122
f 129/59/129 141/185/141 131/103/131
f 135/136/135 136/133/136 140/150/140
f 144/141/144 127/187/127 139/139/139
f 139/147/139 131/103/131 141/185/141
f 135/129/135 141/185/141 129/59/129
f 148/142/148 147/138/147 145/149/145
f 143/189/143 142/146/142 133/31/133
f 140/150/140 147/138/147 135/136/135
f 151/153/151 145/218/145 154/151/154
f 149/192/149 148/193/148 151/219/151
f 143/76/143 146/140/146 148/142/148
f 146/140/146 141/72/141 147/138/147
f 138/220/138 149/197/149 150/196/150
f 145/198/145 150/81/150 154/79/154
f 149/197/149 152/199/152 150/196/150
f 153/155/153 154/202/154 152/201/152
f 2/61/2 19/63/19 98/134/98
f 6/92/6 13/177/13 80/120/80
f 49/17/49 47/26/47 24/25/24
f 3/5/3 99/4/99 101/87/101
f 7/12/7 83/11/83 81/9/81
f 22/158/22 65/206/65 63/159/63
f 25/77/25 48/210/48 50/96/50
f 5/2/5 66/10/66 68/16/68
f 67/106/67 65/206/65 22/158/22
f 9/22/9 102/21/102 100/88/100
f 6/162/6 86/221/86 87/20/87
f 23/163/23 2/222/2 53/164/53
f 12/167/12 63/223/63 107/110/107
f 89/30/89 48/210/48 25/77/25
f 12/168/12 10/34/10 106/33/106
f 54/107/54 56/38/56 11/37/11
f 24/25/24 88/24/88 90/41/90
f 16/170/16 73/114/73 71/29/71
f 21/67/21 57/175/57 55/171/55
f 11/37/11 58/36/58 60/117/60
f 18/172/18 92/39/92 94/173/94
f 17/83/17 15/8/15 76/116/76
f 21/67/21 12/160/12 59/123/59
f 95/49/95 93/213/93 29/176/29
f 17/53/17 77/52/77 75/45/75
f 30/47/30 96/46/96 97/51/97
f 4/64/4 60/117/60 62/3/62
f 7/178/7 15/56/15 13/179/13
f 13/181/13 14/216/14 22/70/22
f 36/141/36 8/145/8 29/183/29
f 34/78/34 25/77/25 1/97/1
f 31/184/31 1/97/1 11/37/11
f 36/141/36 32/139/32 18/187/18
f 32/147/32 33/185/33 23/18/23
f 39/73/39 38/140/38 40/75/40
f 26/186/26 28/71/28 39/73/39
f 43/153/43 46/151/46 37/190/37
f 41/192/41 43/219/43 40/193/40
f 38/140/38 36/141/36 35/76/35
f 38/140/38 39/73/39 33/72/33
f 34/195/34 31/224/31 42/196/42
f 42/81/42 31/225/31 37/198/37
f 41/197/41 42/196/42 44/199/44
f 109/226/109 108/227/108 106/228/106
f 99/4/99 55/6/55 112/203/112
f 111/204/111 53/135/53 98/134/98
f 116/92/116 82/91/82 80/120/80
f 49/17/49 131/103/131 132/25/132
f 81/9/81 83/11/83 117/95/117
f 63/159/63 65/206/65 130/205/130
f 50/96/50 48/210/48 134/77/134
f 68/16/68 66/10/66 136/85/136
f 67/106/67 124/105/124 130/205/130
f 100/88/100 102/21/102 128/100/128
f 87/20/87 86/221/86 116/162/116
f 128/207/128 105/166/105 103/94/103
f 131/208/131 51/165/51 53/164/53
f 107/110/107 63/223/63 123/167/123
f 89/30/89 133/31/133 134/77/134
f 71/29/71 115/113/115 124/211/124
f 123/168/123 61/169/61 106/33/106
f 54/107/54 110/97/110 113/115/113
f 90/41/90 88/24/88 132/25/132
f 55/171/55 57/175/57 122/130/122
f 94/173/94 92/39/92 127/212/127
f 126/83/126 78/82/78 76/116/76
f 122/130/122 57/175/57 59/123/59
f 95/49/95 118/124/118 133/176/133
f 75/45/75 77/52/77 126/53/126
f 97/51/97 96/46/96 137/47/137
f 62/3/62 60/117/60 113/115/113
f 125/56/125 114/215/114 124/214/124
f 114/215/114 125/56/125 117/178/117
f 119/128/119 112/229/112 111/204/111
f 133/183/133 118/145/118 144/141/144
f 110/97/110 134/77/134 142/146/142
f 113/115/113 110/97/110 138/217/138
f 144/141/144 137/144/137 127/187/127
f 139/147/139 132/25/132 131/103/131
f 148/142/148 146/140/146 147/138/147
f 140/150/140 145/149/145 147/138/147
f 151/153/151 148/191/148 145/218/145
f 149/192/149 142/194/142 148/193/148
f 143/76/143 144/141/144 146/140/146
f 146/140/146 139/139/139 141/72/141
f 138/220/138 142/195/142 149/197/149
f 145/198/145 138/225/138 150/81/150
f 149/197/149 153/200/153 152/199/152
